# xmcd
#
# Track frame offsets: 
#        150
#        20410
#        32412
#        55012
#        73952
#        94564
#        131114
#        158484
#        182066
#        198763
#        229448
#
# Disc length: 3258 seconds
#
# Revision: 0
# Processed by: cddbd v1.5.2PL0 Copyright (c) Steve Scherf et al.
# Submitted via: ExactAudioCopy v1.0b3
#
DISCID=8b0cb80b
DTITLE=Beth Hart and Joe Bonnamassa - Don't Explain
DYEAR=2011
DGENRE=Blues
TTITLE0=Sinner's Prayer
TTITLE1=Chocolate Jesus
TTITLE2=Your Heart Is As Black As Nigh
TTITLE3=For My Friends
TTITLE4=Don't Explain
TTITLE5=I'd Rather Go Blind
TTITLE6=Something's Got A Hold On Me
TTITLE7=I'll Take Care Of You
TTITLE8=Well, Well
TTITLE9=Ain't No Way
TTITLE10=I'll Take Care Of You [Radio Edit]
EXTD=
EXTT0=
EXTT1=
EXTT2=
EXTT3=
EXTT4=
EXTT5=
EXTT6=
EXTT7=
EXTT8=
EXTT9=
EXTT10=
PLAYORDER=
